# xmcd
# Track frame offsets:
# 183
# 11285
# 17058
# 32570
# 42420
# 53470
# 58170
# 72208
# 84033
# 97458
# 107783
# 118058
#
# Disc length: 1766 seconds
# Revision: 0
# Processed by: cddbd v1.4PL0 Copyright (c) Steve Scherf et al.
# Submitted via: VisiTrax 2.9.5.180 - For more info visit www.synapsa.com
#
DISCID=9506e40c
DTITLE=George Jones and Tammy Wynette - The king and queen of country music
DYEAR=1990
DGENRE=
TTITLE0=Tammy Wynette - D.I.V.O.R.C.E.
TTITLE1=Tammy Wynette - Singing my song
TTITLE2=George Jones - He stopped loving her today
TTITLE3=George Jones - The race is on
TTITLE4=Tammy Wynette - Stand by your man
TTITLE5=Tammy Wynette - Your good girl's gonna go bad
TTITLE6=George Jones - I always get lucky with you
TTITLE7=George Jones - She's my rock
TTITLE8=Tammy Wynette - Till I can make it on my own
TTITLE9=Tammy Wynette - Womanhood
TTITLE10=George Jones - The one I loved back then (the corvette song)
TTITLE11=George Jones - Who's gonna fill their shoes
EXTD=
EXTT0=
EXTT1=
EXTT2=
EXTT3=
EXTT4=
EXTT5=
EXTT6=
EXTT7=
EXTT8=
EXTT9=
EXTT10=
EXTT11=
PLAYORDER=
